<?xml version="1.0" encoding="iso-8859-1"?>
<!-- Generator: Adobe Illustrator 19.0.0, SVG Export Plug-In . SVG Version: 6.00 Build 0)  -->
<svg version="1.1" id="Layer_1" xmlns="http://www.w3.org/2000/svg" xmlns:xlink="http://www.w3.org/1999/xlink" x="0px" y="0px"
	 viewBox="0 0 512 512" style="enable-background:new 0 0 512 512;" xml:space="preserve">
<path style="fill:#FF3B3B;" d="M301.657,18.675c-2.128,0-4.219,0.131-6.275,0.38l-39.384,178.437
	c2.971-1.639,97.971-54.393,97.971-126.504C353.97,42.097,330.547,18.675,301.657,18.675z"/>
<path style="fill:#FF6761;" d="M295.383,19.055c19.62,3.137,34.82,25.194,34.82,51.933c0,71.934-71.624,124.615-74.203,126.504
	c-0.048,0.024-0.071,0.036-0.071,0.036s-98.043-53.287-98.043-126.54c0-28.89,23.411-52.313,52.301-52.313
	c19.703,0,36.816,10.91,45.741,26.989C263.878,31.319,278.365,21.087,295.383,19.055z"/>
<path style="fill:#6CDFB4;" d="M471.149,245.025L190.638,405.706L256,492.854c136.867,0,247.83-110.962,247.83-247.83
	L471.149,245.025L471.149,245.025z"/>
<path style="fill:#7BFFCD;" d="M40.851,245.025H8.17c0,136.867,110.962,247.83,247.83,247.83v-65.362L40.851,245.025z"/>
<path style="fill:#FF3B3B;" d="M438.468,245.025L258.353,460.152c117.553-1.253,212.796-97.281,212.796-215.127H438.468z"/>
<path style="fill:#FF6761;" d="M40.851,245.025h397.617c0,117.706-80.58,213.635-180.115,215.127
	c-0.784,0.011-1.569,0.022-2.353,0.022C137.368,460.174,40.851,363.656,40.851,245.025z"/>
<path d="M297.032,97.081c4.513,0,8.17-3.657,8.17-8.17V78.017c0-4.513-3.657-8.17-8.17-8.17c-4.513,0-8.17,3.657-8.17,8.17V88.91
	C288.862,93.424,292.519,97.081,297.032,97.081z"/>
<path d="M255.999,129.761c4.513,0,8.17-3.657,8.17-8.17v-10.894c0-4.513-3.657-8.17-8.17-8.17c-4.513,0-8.17,3.657-8.17,8.17v10.894
	C247.829,126.105,251.486,129.761,255.999,129.761z"/>
<path d="M132.902,319.021c4.513,0,8.17-3.657,8.17-8.17v-10.894c0-4.513-3.657-8.17-8.17-8.17c-4.513,0-8.17,3.657-8.17,8.17v10.894
	C124.732,315.363,128.389,319.021,132.902,319.021z"/>
<path d="M173.935,351.702c4.513,0,8.17-3.657,8.17-8.17v-10.894c0-4.513-3.657-8.17-8.17-8.17s-8.17,3.657-8.17,8.17v10.894
	C165.765,348.043,169.422,351.702,173.935,351.702z"/>
<path d="M379.098,319.021c4.513,0,8.17-3.657,8.17-8.17v-10.894c0-4.513-3.657-8.17-8.17-8.17c-4.513,0-8.17,3.657-8.17,8.17v10.894
	C370.928,315.363,374.585,319.021,379.098,319.021z"/>
<path d="M338.065,351.702c4.513,0,8.17-3.657,8.17-8.17v-10.894c0-4.513-3.657-8.17-8.17-8.17c-4.513,0-8.17,3.657-8.17,8.17v10.894
	C329.895,348.043,333.552,351.702,338.065,351.702z"/>
<path d="M256,403.446c4.513,0,8.17-3.657,8.17-8.17v-10.894c0-4.513-3.657-8.17-8.17-8.17s-8.17,3.657-8.17,8.17v10.894
	C247.83,399.788,251.487,403.446,256,403.446z"/>
<path d="M214.967,319.021c4.513,0,8.17-3.657,8.17-8.17v-10.894c0-4.513-3.657-8.17-8.17-8.17s-8.17,3.657-8.17,8.17v10.894
	C206.797,315.363,210.454,319.021,214.967,319.021z"/>
<path d="M503.83,237.319H8.17c-4.513,0-8.17,3.657-8.17,8.17c0,68.38,26.628,132.667,74.981,181.019S187.62,501.489,256,501.489
	s132.667-26.628,181.019-74.981S512,313.868,512,245.489C512,240.976,508.343,237.319,503.83,237.319z M462.803,253.659
	C458.496,364.015,367.392,452.467,256,452.467S53.504,364.015,49.197,253.659L462.803,253.659L462.803,253.659z M256,485.148
	c-129.415,0-235.2-103.108-239.522-231.489h16.369C37.162,373.026,135.598,468.808,256,468.808s218.838-95.782,223.154-215.149
	h16.369C491.2,382.039,385.415,485.148,256,485.148z"/>
<path d="M255.928,205.699c-1.342,0-2.685-0.331-3.901-0.991c-4.178-2.27-102.312-56.488-102.312-133.72
	c0-33.346,27.128-60.476,60.476-60.476c17.738,0,34.376,7.807,45.737,20.958c11.362-13.151,27.999-20.958,45.737-20.958
	c33.346,0,60.476,27.128,60.476,60.476c0,77.231-98.134,131.45-102.312,133.72C258.612,205.368,257.27,205.699,255.928,205.699z
	 M210.19,26.852c-24.336,0-44.135,19.799-44.135,44.135c0,59.598,72.114,106.465,89.868,117.097
	c17.742-10.644,89.877-57.6,89.877-117.097c0-24.336-19.799-44.135-44.135-44.135c-16.014,0-30.801,8.729-38.592,22.781
	c-1.44,2.597-4.176,4.208-7.146,4.208s-5.705-1.611-7.146-4.208C240.992,35.581,226.204,26.852,210.19,26.852z"/>
<g>
</g>
<g>
</g>
<g>
</g>
<g>
</g>
<g>
</g>
<g>
</g>
<g>
</g>
<g>
</g>
<g>
</g>
<g>
</g>
<g>
</g>
<g>
</g>
<g>
</g>
<g>
</g>
<g>
</g>
</svg>
