<?xml version="1.0" encoding="iso-8859-1"?>
<!-- Generator: Adobe Illustrator 19.0.0, SVG Export Plug-In . SVG Version: 6.00 Build 0)  -->
<svg version="1.1" id="Layer_1" xmlns="http://www.w3.org/2000/svg" xmlns:xlink="http://www.w3.org/1999/xlink" x="0px" y="0px"
	 viewBox="0 0 512 512" style="enable-background:new 0 0 512 512;" xml:space="preserve">
<path style="fill:#D1D3D4;" d="M63.214,133.536C68.648,235.413,152.765,316.393,256,316.393s187.347-80.98,192.786-182.857h52.765
	c0,135.419-110.449,244.928-245.862,244.928c-135.423,0-245.24-109.511-245.24-244.928H63.214z"/>
<path style="fill:#FFD248;" d="M448.786,133.536C443.347,235.413,359.235,316.393,256,316.393S68.648,235.413,63.214,133.536
	C63.214,133.536,448.786,133.536,448.786,133.536z"/>
<g>
	<path style="fill:#231F20;" d="M501.551,123.087h-52.765H63.214H10.449C4.678,123.087,0,127.765,0,133.536
		c0,68.27,26.601,132.423,74.904,180.641c48.278,48.195,112.482,74.736,180.786,74.736c141.33,0,256.31-114.562,256.31-255.377
		C512,127.765,507.322,123.087,501.551,123.087z M437.435,143.985C427.037,235.656,349.372,305.944,256,305.944
		c-93.377,0-171.042-70.289-181.436-161.959H437.435z M255.689,368.015c-62.728,0-121.689-24.372-166.022-68.629
		c-41.873-41.799-65.982-96.648-68.542-155.402h32.423C64.049,247.297,151.133,326.841,256,326.841
		c104.861,0,191.946-79.544,202.451-182.857h32.42C485.36,268.445,381.978,368.015,255.689,368.015z"/>
	<rect x="125.388" y="170.109" style="fill:#231F20;" width="20.898" height="20.898"/>
	<rect x="245.551" y="159.66" style="fill:#231F20;" width="20.898" height="20.898"/>
	<rect x="355.265" y="170.109" style="fill:#231F20;" width="20.898" height="20.898"/>
	<rect x="303.02" y="211.905" style="fill:#231F20;" width="20.898" height="20.898"/>
	<rect x="177.633" y="211.905" style="fill:#231F20;" width="20.898" height="20.898"/>
	<rect x="245.551" y="264.15" style="fill:#231F20;" width="20.898" height="20.898"/>
</g>
<g>
</g>
<g>
</g>
<g>
</g>
<g>
</g>
<g>
</g>
<g>
</g>
<g>
</g>
<g>
</g>
<g>
</g>
<g>
</g>
<g>
</g>
<g>
</g>
<g>
</g>
<g>
</g>
<g>
</g>
</svg>
